<svg width="44" height="53" viewBox="0 0 44 53" fill="none" xmlns="http://www.w3.org/2000/svg">
<path d="M14.8199 0.36694C14.2568 0.842583 14.0096 1.44053 14.0096 2.37822C14.0096 3.2072 14.2705 3.84591 14.6963 4.07694C14.971 4.21284 14.971 4.37592 14.971 12.1357V20.0585L7.73277 32.9551C3.74969 40.0626 0.370937 46.2051 0.23359 46.6128C-0.508087 48.7328 0.810449 51.3149 3.22777 52.5244L4.05185 52.9321H21.9757H39.8996L40.6824 52.5516C41.8499 51.9808 42.8937 50.9751 43.4294 49.9016C43.814 49.1269 43.8826 48.8551 43.8826 47.9718C43.8826 47.401 43.8002 46.7487 43.6904 46.4769C43.5805 46.2187 40.3528 40.4023 36.5345 33.5667C32.7026 26.731 29.4337 20.8739 29.2689 20.5613C28.9804 19.9905 28.9804 19.8818 28.9804 12.1085C28.9804 4.37592 28.9804 4.21284 29.2551 4.07694C29.6809 3.84591 29.9419 3.2072 29.9419 2.37822C29.9419 1.44053 29.6946 0.842583 29.1315 0.36694L28.6783 1.52588e-05H21.9757H15.2731L14.8199 0.36694ZM28.019 1.63079C28.2113 1.82104 28.2937 2.07925 28.2937 2.50053C28.2937 3.15284 28.0327 3.53335 27.5932 3.53335C27.3323 3.53335 27.3323 3.7372 27.3323 12.4754V21.4175L33.7464 33.091C37.2762 39.519 40.3116 45.1451 40.4902 45.5936C41.5477 48.1485 40.1056 50.4044 37.0565 50.9616C36.562 51.0567 31.1093 51.0839 21.5499 51.0703C7.21085 51.0295 6.78507 51.0159 6.13953 50.7577C4.64245 50.1462 3.42005 48.7736 3.21403 47.4962C3.03548 46.2323 3.15909 45.9741 10.0265 33.4308L16.6192 21.4175V12.4754V3.53335H16.2758C15.85 3.53335 15.6577 3.18002 15.6577 2.39181C15.6577 1.31822 15.4517 1.35899 22.0032 1.35899C27.5658 1.35899 27.758 1.37258 28.019 1.63079Z" fill="black"/>
<path d="M24.1184 4.10411C23.9262 4.3759 23.8987 5.35436 23.8987 12.0949C23.8987 16.3213 23.9536 19.841 24.0086 19.9226C24.0635 20.0041 24.2421 20.14 24.4206 20.2351C24.6816 20.371 24.8052 20.371 25.0799 20.1808L25.4095 19.9769V12.0541C25.4095 6.07462 25.3683 4.09052 25.2447 3.96821C24.97 3.69641 24.3519 3.77795 24.1184 4.10411Z" fill="black"/>
<path d="M26.2472 25.209C25.9999 25.3177 25.272 25.7254 24.6402 26.0923C23.1294 27.0028 21.907 27.5464 20.767 27.8046C19.5721 28.09 17.4295 27.9949 16.2483 27.6144L15.3967 27.3426L10.672 35.9313C8.07609 40.6469 5.87853 44.7102 5.78238 44.9685C5.26046 46.5449 6.01587 48.2028 7.70525 49.1269L8.44693 49.5346H22.2504C35.9988 49.5346 36.0538 49.5346 36.6856 49.2492C37.5371 48.8551 38.3063 48.1485 38.6085 47.4961C38.9106 46.8438 38.9381 45.7567 38.6771 45.0092C38.4711 44.4249 29.0216 26.6087 28.5271 25.8613C27.9778 25.0459 27.1811 24.8149 26.2472 25.209ZM25.6016 31.5282C25.9999 31.9087 25.945 32.5882 25.4918 32.9823C25.0797 33.3356 24.8874 33.3628 24.393 33.1454C23.8985 32.9143 23.6513 32.262 23.9123 31.8136C24.3106 31.1205 25.0385 30.9982 25.6016 31.5282ZM18.1574 34.3413C18.7755 34.8849 18.954 35.7002 18.6106 36.4477C18.5145 36.6787 18.542 36.6787 19.009 36.4885C19.9979 36.0808 21.1928 36.2846 22.0718 37.032C22.8135 37.6572 23.1294 38.459 23.047 39.5461C22.9646 40.6333 22.4564 41.3808 21.44 41.8836C20.1627 42.5223 18.9952 42.332 17.9788 41.3264C16.9762 40.3479 16.7702 38.9482 17.4295 37.8338L17.6904 37.399H17.1273C15.6027 37.4261 14.7374 35.972 15.5341 34.7082C15.6851 34.45 15.8225 34.2461 15.8362 34.2461C15.85 34.2461 16.0972 34.1646 16.3994 34.0559C17.0174 33.8385 17.7316 33.9608 18.1574 34.3413Z" fill="#89E73F"/>
</svg>
